<svg xmlns="http://www.w3.org/2000/svg" viewBox="0 0 164 178"><g id="f367562b-c75a-4f3d-9207-9f9883e28236" data-name="背景圖"><circle cx="31.7" cy="92.4" r="10.2" fill="#2ca6e0"/><path d="M9.7,124.7l.7.7c3.1,2.6,8.6-1.6,10.9-3.4,6.3-5.1,13.1-10.4,17.2-17.5s1.9-18.1-8.3-19.4c-6.1-.8-10.4,7.8-12.6,12.1a82.5,82.5,0,0,0-5.9,14.9C10.8,115,7.3,121.5,9.7,124.7Z" fill="#dbdcdc"/><path d="M21.3,122c-1.8,1.4-5.6,4.3-8.7,4.2a22,22,0,0,1,18-23.8,21.7,21.7,0,0,1,8.8.1,12.1,12.1,0,0,1-.9,2C34.4,111.6,27.6,116.9,21.3,122Z" fill="#eeeeef"/><path d="M90.8,97.9c-.5-10.5-2.4-21.2-7.1-30.6-2.5-5.1-6.2-8.8-9.8-13S65.1,45,58,45c-10,0-15.8,8.2-21.3,15.3-7,9-9.9,20.6-11.1,31.7-.1.8-.8,12.5-.6,16.4s0,5.3.2,8c.5,10.4,2.3,21.2,7.1,30.6,2.5,5.1,6.2,8.7,9.8,13s8.8,9.2,15.9,9.2c10,0,15.8-8.1,21.3-15.2,7-9,9.9-20.6,11-31.7.1-.9.8-12.5.7-16.4S91,100.5,90.8,97.9Z" fill="#e7e8ec"/><path d="M79.7,107.1c0-23.7-18.8-43.3-43.3-46.4C29.6,69.6,26.8,81.1,25.6,92c-.1.8-.8,12.5-.6,16.4s0,5.3.2,8c.5,10.4,2.3,21.2,7.1,30.6a36.6,36.6,0,0,0,4.3,6.5C61,150.3,79.7,130.8,79.7,107.1Z" fill="#f7f7f7"/><circle cx="53.4" cy="58.3" r="34.1" fill="#2ca6e0"/><circle cx="52.4" cy="52" r="37.5" fill="#f7f7f7"/><ellipse cx="47.5" cy="23.9" rx="5.6" ry="3.1" transform="translate(-3.4 8.4) rotate(-9.8)" fill="#abbfd4"/><rect x="45.6" y="11.6" width="1.9" height="13.26" transform="translate(-2.4 8.2) rotate(-9.8)" fill="#2ca6e0"/><circle cx="45.6" cy="12.7" r="3.7" fill="#e50012"/><ellipse cx="47.7" cy="24.7" rx="0.9" ry="0.3" transform="translate(-3.5 8.5) rotate(-9.8)" fill="#2ca6e0"/><path d="M21.5,37.8a2.2,2.2,0,0,0,.6,1.4,1.6,1.6,0,0,0,1.5.2,2.9,2.9,0,0,0,1.2-1,14.4,14.4,0,0,0,2.5-4.5c.3-1.3.2-2.4-1-2.9s-2.9,1.2-3.5,2.2A7.1,7.1,0,0,0,21.5,37.8Z" fill="#eeeeef"/><path d="M18.7,40.1c0,.3,0,.6.2.7a.8.8,0,0,0,.8.1,1.8,1.8,0,0,0,.7-.5,9.4,9.4,0,0,0,1.3-2.3c.1-.7.1-1.3-.5-1.5s-1.5.6-1.9,1.1A4.1,4.1,0,0,0,18.7,40.1Z" fill="#eeeeef"/><path d="M61.8,15.7A37.5,37.5,0,0,1,46.4,83.2a36.4,36.4,0,0,1-15.8-.6A37.5,37.5,0,1,0,61.8,15.7Z" fill="#e7e8ec"/><path d="M76.9,63.8c-3.9,7-13.7,9-21,10.5s-17.2,2.5-23.3-2.9a15.3,15.3,0,0,1-4.7-8.7c.5,3.9,1.8,7.6,5,10.4,6.1,5.4,15.9,3.9,23.3,3s17.1-3.5,21-10.6c2.1-3.7,2-7.6,1.2-11.5A14.7,14.7,0,0,1,76.9,63.8Z" fill="#363737"/><path d="M55.9,74.3c7.3-1.5,17.1-3.5,21-10.5A14.7,14.7,0,0,0,78.4,54a69.5,69.5,0,0,0-1.9-6.9c-1.7-5.2-5.3-8.1-10.8-6.3s-9.1,4.6-14.6,5.4-10.2-.4-15.6-.2-8.2,4.1-8.1,9.5c.1,2.4.2,4.8.5,7.2a15.3,15.3,0,0,0,4.7,8.7C38.7,76.8,48.5,75.3,55.9,74.3Z" fill="#2ca6e0"/><rect x="34.8" y="60.5" width="9.9" height="3.08" rx="1.5" transform="translate(-10 7.7) rotate(-9.8)" fill="#363737"/><rect x="60.8" y="56" width="9.9" height="3.08" rx="1.5" transform="translate(-8.8 12) rotate(-9.8)" fill="#363737"/><circle cx="90.4" cy="99.3" r="10.2" fill="#2ca6e0"/><path d="M58.9,76l-.7.6c-2.7,3.1,1.3,8.8,3,11.1,4.8,6.5,9.8,13.5,16.7,17.8s18.1,2.6,19.8-7.4c1-6.1-7.4-10.8-11.6-13.2a87.2,87.2,0,0,0-14.7-6.4C68.6,77.5,62.2,73.8,58.9,76Z" fill="#e7e8ec"/><path d="M72.3,93.3a18.9,18.9,0,0,0,24.4,8.1,11.5,11.5,0,0,0,1-3.3c1-6.1-7.4-10.8-11.6-13.2a87.2,87.2,0,0,0-14.7-6.4h-.3A19,19,0,0,0,72.3,93.3Z" fill="#f7f7f7"/><rect x="93.7" y="12.3" width="62.9" height="37.1" rx="12.1" fill="#2ca6e0"/><path d="M124.4,48.8l-2.2,2.9a1.5,1.5,0,0,0,1.7,2.2l14.7-5.7h-13A1.4,1.4,0,0,0,124.4,48.8Z" fill="#2ca6e0"/></g></svg>